<svg xmlns="http://www.w3.org/2000/svg" version="1.1" xmlns:xlink="http://www.w3.org/1999/xlink" xmlns:svgjs="http://svgjs.dev/svgjs" width="1440" height="560" preserveAspectRatio="none" viewBox="0 0 1440 560"><g mask="url(&quot;#SvgjsMask1032&quot;)" fill="none"><rect width="1440" height="560" x="0" y="0" fill="#0e2a47"></rect><path d="M48.32 171.28L102.02 202.28L102.02 264.28L48.32 295.28L-5.38 264.28L-5.38 202.28zM48.32 543.28L102.02 574.28L102.02 636.28L48.32 667.28L-5.38 636.28L-5.38 574.28zM209.41 264.28L263.1 295.28L263.1 357.28L209.41 388.28L155.71 357.28L155.71 295.28zM209.41 450.28L263.1 481.28L263.1 543.28L209.41 574.28L155.71 543.28L155.71 481.28zM263.1 171.28L316.8 202.28L316.8 264.28L263.1 295.28L209.41 264.28L209.41 202.28zM316.8 450.28L370.49 481.28L370.49 543.28L316.8 574.28L263.1 543.28L263.1 481.28zM424.19 78.28L477.88 109.28L477.88 171.28L424.19 202.28L370.49 171.28L370.49 109.28zM424.19 264.28L477.88 295.28L477.88 357.28L424.19 388.28L370.49 357.28L370.49 295.28zM424.19 450.28L477.88 481.28L477.88 543.28L424.19 574.28L370.49 543.28L370.49 481.28zM638.97 78.28L692.66 109.28L692.66 171.28L638.97 202.28L585.27 171.28L585.27 109.28zM585.27 171.28L638.97 202.28L638.97 264.28L585.27 295.28L531.58 264.28L531.58 202.28zM638.97 264.28L692.66 295.28L692.66 357.28L638.97 388.28L585.27 357.28L585.27 295.28zM692.66 -14.72L746.36 16.28L746.36 78.28L692.66 109.28L638.97 78.28L638.97 16.28zM692.66 357.28L746.36 388.28L746.36 450.28L692.66 481.28L638.97 450.28L638.97 388.28zM853.75 264.28L907.44 295.28L907.44 357.28L853.75 388.28L800.05 357.28L800.05 295.28zM800.05 357.28L853.75 388.28L853.75 450.28L800.05 481.28L746.36 450.28L746.36 388.28zM853.75 450.28L907.44 481.28L907.44 543.28L853.75 574.28L800.05 543.28L800.05 481.28zM907.44 -14.72L961.14 16.28L961.14 78.28L907.44 109.28L853.75 78.28L853.75 16.28zM1014.83 171.28L1068.53 202.28L1068.53 264.28L1014.83 295.28L961.14 264.28L961.14 202.28zM1122.22 171.28L1175.92 202.28L1175.92 264.28L1122.22 295.28L1068.53 264.28L1068.53 202.28zM1122.22 357.28L1175.92 388.28L1175.92 450.28L1122.22 481.28L1068.53 450.28L1068.53 388.28zM1175.92 450.28L1229.61 481.28L1229.61 543.28L1175.92 574.28L1122.22 543.28L1122.22 481.28zM1283.31 264.28L1337 295.28L1337 357.28L1283.31 388.28L1229.61 357.28L1229.61 295.28zM1283.31 450.28L1337 481.28L1337 543.28L1283.31 574.28L1229.61 543.28L1229.61 481.28zM1337 -14.72L1390.7 16.28L1390.7 78.28L1337 109.28L1283.31 78.28L1283.31 16.28zM1337 171.28L1390.7 202.28L1390.7 264.28L1337 295.28L1283.31 264.28L1283.31 202.28zM1444.39 543.28L1498.09 574.28L1498.09 636.28L1444.39 667.28L1390.7 636.28L1390.7 574.28z" stroke="#03305d" stroke-width="2"></path><path d="M42.12 171.28 a6.2 6.2 0 1 0 12.4 0 a6.2 6.2 0 1 0 -12.4 0zM95.82 202.28 a6.2 6.2 0 1 0 12.4 0 a6.2 6.2 0 1 0 -12.4 0zM95.82 264.28 a6.2 6.2 0 1 0 12.4 0 a6.2 6.2 0 1 0 -12.4 0zM42.12 295.28 a6.2 6.2 0 1 0 12.4 0 a6.2 6.2 0 1 0 -12.4 0zM-11.58 264.28 a6.2 6.2 0 1 0 12.4 0 a6.2 6.2 0 1 0 -12.4 0zM-11.58 202.28 a6.2 6.2 0 1 0 12.4 0 a6.2 6.2 0 1 0 -12.4 0zM42.12 543.28 a6.2 6.2 0 1 0 12.4 0 a6.2 6.2 0 1 0 -12.4 0zM95.82 574.28 a6.2 6.2 0 1 0 12.4 0 a6.2 6.2 0 1 0 -12.4 0zM95.82 636.28 a6.2 6.2 0 1 0 12.4 0 a6.2 6.2 0 1 0 -12.4 0zM42.12 667.28 a6.2 6.2 0 1 0 12.4 0 a6.2 6.2 0 1 0 -12.4 0zM-11.58 636.28 a6.2 6.2 0 1 0 12.4 0 a6.2 6.2 0 1 0 -12.4 0zM-11.58 574.28 a6.2 6.2 0 1 0 12.4 0 a6.2 6.2 0 1 0 -12.4 0zM203.21 264.28 a6.2 6.2 0 1 0 12.4 0 a6.2 6.2 0 1 0 -12.4 0zM256.9 295.28 a6.2 6.2 0 1 0 12.4 0 a6.2 6.2 0 1 0 -12.4 0zM256.9 357.28 a6.2 6.2 0 1 0 12.4 0 a6.2 6.2 0 1 0 -12.4 0zM203.21 388.28 a6.2 6.2 0 1 0 12.4 0 a6.2 6.2 0 1 0 -12.4 0zM149.51 357.28 a6.2 6.2 0 1 0 12.4 0 a6.2 6.2 0 1 0 -12.4 0zM149.51 295.28 a6.2 6.2 0 1 0 12.4 0 a6.2 6.2 0 1 0 -12.4 0zM203.21 450.28 a6.2 6.2 0 1 0 12.4 0 a6.2 6.2 0 1 0 -12.4 0zM256.9 481.28 a6.2 6.2 0 1 0 12.4 0 a6.2 6.2 0 1 0 -12.4 0zM256.9 543.28 a6.2 6.2 0 1 0 12.4 0 a6.2 6.2 0 1 0 -12.4 0zM203.21 574.28 a6.2 6.2 0 1 0 12.4 0 a6.2 6.2 0 1 0 -12.4 0zM149.51 543.28 a6.2 6.2 0 1 0 12.4 0 a6.2 6.2 0 1 0 -12.4 0zM149.51 481.28 a6.2 6.2 0 1 0 12.4 0 a6.2 6.2 0 1 0 -12.4 0zM256.9 171.28 a6.2 6.2 0 1 0 12.4 0 a6.2 6.2 0 1 0 -12.4 0zM310.6 202.28 a6.2 6.2 0 1 0 12.4 0 a6.2 6.2 0 1 0 -12.4 0zM310.6 264.28 a6.2 6.2 0 1 0 12.4 0 a6.2 6.2 0 1 0 -12.4 0zM203.21 202.28 a6.2 6.2 0 1 0 12.4 0 a6.2 6.2 0 1 0 -12.4 0zM310.6 450.28 a6.2 6.2 0 1 0 12.4 0 a6.2 6.2 0 1 0 -12.4 0zM364.29 481.28 a6.2 6.2 0 1 0 12.4 0 a6.2 6.2 0 1 0 -12.4 0zM364.29 543.28 a6.2 6.2 0 1 0 12.4 0 a6.2 6.2 0 1 0 -12.4 0zM310.6 574.28 a6.2 6.2 0 1 0 12.4 0 a6.2 6.2 0 1 0 -12.4 0zM417.99 78.28 a6.2 6.2 0 1 0 12.4 0 a6.2 6.2 0 1 0 -12.4 0zM471.68 109.28 a6.2 6.2 0 1 0 12.4 0 a6.2 6.2 0 1 0 -12.4 0zM471.68 171.28 a6.2 6.2 0 1 0 12.4 0 a6.2 6.2 0 1 0 -12.4 0zM417.99 202.28 a6.2 6.2 0 1 0 12.4 0 a6.2 6.2 0 1 0 -12.4 0zM364.29 171.28 a6.2 6.2 0 1 0 12.4 0 a6.2 6.2 0 1 0 -12.4 0zM364.29 109.28 a6.2 6.2 0 1 0 12.4 0 a6.2 6.2 0 1 0 -12.4 0zM417.99 264.28 a6.2 6.2 0 1 0 12.4 0 a6.2 6.2 0 1 0 -12.4 0zM471.68 295.28 a6.2 6.2 0 1 0 12.4 0 a6.2 6.2 0 1 0 -12.4 0zM471.68 357.28 a6.2 6.2 0 1 0 12.4 0 a6.2 6.2 0 1 0 -12.4 0zM417.99 388.28 a6.2 6.2 0 1 0 12.4 0 a6.2 6.2 0 1 0 -12.4 0zM364.29 357.28 a6.2 6.2 0 1 0 12.4 0 a6.2 6.2 0 1 0 -12.4 0zM364.29 295.28 a6.2 6.2 0 1 0 12.4 0 a6.2 6.2 0 1 0 -12.4 0zM417.99 450.28 a6.2 6.2 0 1 0 12.4 0 a6.2 6.2 0 1 0 -12.4 0zM471.68 481.28 a6.2 6.2 0 1 0 12.4 0 a6.2 6.2 0 1 0 -12.4 0zM471.68 543.28 a6.2 6.2 0 1 0 12.4 0 a6.2 6.2 0 1 0 -12.4 0zM417.99 574.28 a6.2 6.2 0 1 0 12.4 0 a6.2 6.2 0 1 0 -12.4 0zM632.77 78.28 a6.2 6.2 0 1 0 12.4 0 a6.2 6.2 0 1 0 -12.4 0zM686.46 109.28 a6.2 6.2 0 1 0 12.4 0 a6.2 6.2 0 1 0 -12.4 0zM686.46 171.28 a6.2 6.2 0 1 0 12.4 0 a6.2 6.2 0 1 0 -12.4 0zM632.77 202.28 a6.2 6.2 0 1 0 12.4 0 a6.2 6.2 0 1 0 -12.4 0zM579.07 171.28 a6.2 6.2 0 1 0 12.4 0 a6.2 6.2 0 1 0 -12.4 0zM579.07 109.28 a6.2 6.2 0 1 0 12.4 0 a6.2 6.2 0 1 0 -12.4 0zM632.77 264.28 a6.2 6.2 0 1 0 12.4 0 a6.2 6.2 0 1 0 -12.4 0zM579.07 295.28 a6.2 6.2 0 1 0 12.4 0 a6.2 6.2 0 1 0 -12.4 0zM525.38 264.28 a6.2 6.2 0 1 0 12.4 0 a6.2 6.2 0 1 0 -12.4 0zM525.38 202.28 a6.2 6.2 0 1 0 12.4 0 a6.2 6.2 0 1 0 -12.4 0zM686.46 295.28 a6.2 6.2 0 1 0 12.4 0 a6.2 6.2 0 1 0 -12.4 0zM686.46 357.28 a6.2 6.2 0 1 0 12.4 0 a6.2 6.2 0 1 0 -12.4 0zM632.77 388.28 a6.2 6.2 0 1 0 12.4 0 a6.2 6.2 0 1 0 -12.4 0zM579.07 357.28 a6.2 6.2 0 1 0 12.4 0 a6.2 6.2 0 1 0 -12.4 0zM686.46 -14.72 a6.2 6.2 0 1 0 12.4 0 a6.2 6.2 0 1 0 -12.4 0zM740.16 16.28 a6.2 6.2 0 1 0 12.4 0 a6.2 6.2 0 1 0 -12.4 0zM740.16 78.28 a6.2 6.2 0 1 0 12.4 0 a6.2 6.2 0 1 0 -12.4 0zM632.77 16.28 a6.2 6.2 0 1 0 12.4 0 a6.2 6.2 0 1 0 -12.4 0zM740.16 388.28 a6.2 6.2 0 1 0 12.4 0 a6.2 6.2 0 1 0 -12.4 0zM740.16 450.28 a6.2 6.2 0 1 0 12.4 0 a6.2 6.2 0 1 0 -12.4 0zM686.46 481.28 a6.2 6.2 0 1 0 12.4 0 a6.2 6.2 0 1 0 -12.4 0zM632.77 450.28 a6.2 6.2 0 1 0 12.4 0 a6.2 6.2 0 1 0 -12.4 0zM847.55 264.28 a6.2 6.2 0 1 0 12.4 0 a6.2 6.2 0 1 0 -12.4 0zM901.24 295.28 a6.2 6.2 0 1 0 12.4 0 a6.2 6.2 0 1 0 -12.4 0zM901.24 357.28 a6.2 6.2 0 1 0 12.4 0 a6.2 6.2 0 1 0 -12.4 0zM847.55 388.28 a6.2 6.2 0 1 0 12.4 0 a6.2 6.2 0 1 0 -12.4 0zM793.85 357.28 a6.2 6.2 0 1 0 12.4 0 a6.2 6.2 0 1 0 -12.4 0zM793.85 295.28 a6.2 6.2 0 1 0 12.4 0 a6.2 6.2 0 1 0 -12.4 0zM847.55 450.28 a6.2 6.2 0 1 0 12.4 0 a6.2 6.2 0 1 0 -12.4 0zM793.85 481.28 a6.2 6.2 0 1 0 12.4 0 a6.2 6.2 0 1 0 -12.4 0zM901.24 481.28 a6.2 6.2 0 1 0 12.4 0 a6.2 6.2 0 1 0 -12.4 0zM901.24 543.28 a6.2 6.2 0 1 0 12.4 0 a6.2 6.2 0 1 0 -12.4 0zM847.55 574.28 a6.2 6.2 0 1 0 12.4 0 a6.2 6.2 0 1 0 -12.4 0zM793.85 543.28 a6.2 6.2 0 1 0 12.4 0 a6.2 6.2 0 1 0 -12.4 0zM901.24 -14.72 a6.2 6.2 0 1 0 12.4 0 a6.2 6.2 0 1 0 -12.4 0zM954.94 16.28 a6.2 6.2 0 1 0 12.4 0 a6.2 6.2 0 1 0 -12.4 0zM954.94 78.28 a6.2 6.2 0 1 0 12.4 0 a6.2 6.2 0 1 0 -12.4 0zM901.24 109.28 a6.2 6.2 0 1 0 12.4 0 a6.2 6.2 0 1 0 -12.4 0zM847.55 78.28 a6.2 6.2 0 1 0 12.4 0 a6.2 6.2 0 1 0 -12.4 0zM847.55 16.28 a6.2 6.2 0 1 0 12.4 0 a6.2 6.2 0 1 0 -12.4 0zM1008.63 171.28 a6.2 6.2 0 1 0 12.4 0 a6.2 6.2 0 1 0 -12.4 0zM1062.33 202.28 a6.2 6.2 0 1 0 12.4 0 a6.2 6.2 0 1 0 -12.4 0zM1062.33 264.28 a6.2 6.2 0 1 0 12.4 0 a6.2 6.2 0 1 0 -12.4 0zM1008.63 295.28 a6.2 6.2 0 1 0 12.4 0 a6.2 6.2 0 1 0 -12.4 0zM954.94 264.28 a6.2 6.2 0 1 0 12.4 0 a6.2 6.2 0 1 0 -12.4 0zM954.94 202.28 a6.2 6.2 0 1 0 12.4 0 a6.2 6.2 0 1 0 -12.4 0zM1116.02 171.28 a6.2 6.2 0 1 0 12.4 0 a6.2 6.2 0 1 0 -12.4 0zM1169.72 202.28 a6.2 6.2 0 1 0 12.4 0 a6.2 6.2 0 1 0 -12.4 0zM1169.72 264.28 a6.2 6.2 0 1 0 12.4 0 a6.2 6.2 0 1 0 -12.4 0zM1116.02 295.28 a6.2 6.2 0 1 0 12.4 0 a6.2 6.2 0 1 0 -12.4 0zM1116.02 357.28 a6.2 6.2 0 1 0 12.4 0 a6.2 6.2 0 1 0 -12.4 0zM1169.72 388.28 a6.2 6.2 0 1 0 12.4 0 a6.2 6.2 0 1 0 -12.4 0zM1169.72 450.28 a6.2 6.2 0 1 0 12.4 0 a6.2 6.2 0 1 0 -12.4 0zM1116.02 481.28 a6.2 6.2 0 1 0 12.4 0 a6.2 6.2 0 1 0 -12.4 0zM1062.33 450.28 a6.2 6.2 0 1 0 12.4 0 a6.2 6.2 0 1 0 -12.4 0zM1062.33 388.28 a6.2 6.2 0 1 0 12.4 0 a6.2 6.2 0 1 0 -12.4 0zM1223.41 481.28 a6.2 6.2 0 1 0 12.4 0 a6.2 6.2 0 1 0 -12.4 0zM1223.41 543.28 a6.2 6.2 0 1 0 12.4 0 a6.2 6.2 0 1 0 -12.4 0zM1169.72 574.28 a6.2 6.2 0 1 0 12.4 0 a6.2 6.2 0 1 0 -12.4 0zM1116.02 543.28 a6.2 6.2 0 1 0 12.4 0 a6.2 6.2 0 1 0 -12.4 0zM1277.11 264.28 a6.2 6.2 0 1 0 12.4 0 a6.2 6.2 0 1 0 -12.4 0zM1330.8 295.28 a6.2 6.2 0 1 0 12.4 0 a6.2 6.2 0 1 0 -12.4 0zM1330.8 357.28 a6.2 6.2 0 1 0 12.4 0 a6.2 6.2 0 1 0 -12.4 0zM1277.11 388.28 a6.2 6.2 0 1 0 12.4 0 a6.2 6.2 0 1 0 -12.4 0zM1223.41 357.28 a6.2 6.2 0 1 0 12.4 0 a6.2 6.2 0 1 0 -12.4 0zM1223.41 295.28 a6.2 6.2 0 1 0 12.4 0 a6.2 6.2 0 1 0 -12.4 0zM1277.11 450.28 a6.2 6.2 0 1 0 12.4 0 a6.2 6.2 0 1 0 -12.4 0zM1330.8 481.28 a6.2 6.2 0 1 0 12.4 0 a6.2 6.2 0 1 0 -12.4 0zM1330.8 543.28 a6.2 6.2 0 1 0 12.4 0 a6.2 6.2 0 1 0 -12.4 0zM1277.11 574.28 a6.2 6.2 0 1 0 12.4 0 a6.2 6.2 0 1 0 -12.4 0zM1330.8 -14.72 a6.2 6.2 0 1 0 12.4 0 a6.2 6.2 0 1 0 -12.4 0zM1384.5 16.28 a6.2 6.2 0 1 0 12.4 0 a6.2 6.2 0 1 0 -12.4 0zM1384.5 78.28 a6.2 6.2 0 1 0 12.4 0 a6.2 6.2 0 1 0 -12.4 0zM1330.8 109.28 a6.2 6.2 0 1 0 12.4 0 a6.2 6.2 0 1 0 -12.4 0zM1277.11 78.28 a6.2 6.2 0 1 0 12.4 0 a6.2 6.2 0 1 0 -12.4 0zM1277.11 16.28 a6.2 6.2 0 1 0 12.4 0 a6.2 6.2 0 1 0 -12.4 0zM1330.8 171.28 a6.2 6.2 0 1 0 12.4 0 a6.2 6.2 0 1 0 -12.4 0zM1384.5 202.28 a6.2 6.2 0 1 0 12.4 0 a6.2 6.2 0 1 0 -12.4 0zM1384.5 264.28 a6.2 6.2 0 1 0 12.4 0 a6.2 6.2 0 1 0 -12.4 0zM1277.11 202.28 a6.2 6.2 0 1 0 12.4 0 a6.2 6.2 0 1 0 -12.4 0zM1438.19 543.28 a6.2 6.2 0 1 0 12.4 0 a6.2 6.2 0 1 0 -12.4 0zM1491.89 574.28 a6.2 6.2 0 1 0 12.4 0 a6.2 6.2 0 1 0 -12.4 0zM1491.89 636.28 a6.2 6.2 0 1 0 12.4 0 a6.2 6.2 0 1 0 -12.4 0zM1438.19 667.28 a6.2 6.2 0 1 0 12.4 0 a6.2 6.2 0 1 0 -12.4 0zM1384.5 636.28 a6.2 6.2 0 1 0 12.4 0 a6.2 6.2 0 1 0 -12.4 0zM1384.5 574.28 a6.2 6.2 0 1 0 12.4 0 a6.2 6.2 0 1 0 -12.4 0z" fill="#03305d"></path><path d="M26.39 62.71L50.64 76.71L50.64 104.71L26.39 118.71L2.14 104.71L2.14 76.71zM50.64 104.71L74.89 118.71L74.89 146.71L50.64 160.71L26.39 146.71L26.39 118.71zM26.39 482.71L50.64 496.71L50.64 524.71L26.39 538.71L2.14 524.71L2.14 496.71zM99.14 104.71L123.39 118.71L123.39 146.71L99.14 160.71L74.89 146.71L74.89 118.71zM74.89 146.71L99.14 160.71L99.14 188.71L74.89 202.71L50.64 188.71L50.64 160.71zM99.14 188.71L123.39 202.71L123.39 230.71L99.14 244.71L74.89 230.71L74.89 202.71zM74.89 314.71L99.14 328.71L99.14 356.71L74.89 370.71L50.64 356.71L50.64 328.71zM99.14 440.71L123.39 454.71L123.39 482.71L99.14 496.71L74.89 482.71L74.89 454.71zM74.89 482.71L99.14 496.71L99.14 524.71L74.89 538.71L50.64 524.71L50.64 496.71zM99.14 524.71L123.39 538.71L123.39 566.71L99.14 580.71L74.89 566.71L74.89 538.71zM123.39 -21.29L147.64 -7.29L147.64 20.71L123.39 34.71L99.14 20.71L99.14 -7.29zM123.39 62.71L147.64 76.71L147.64 104.71L123.39 118.71L99.14 104.71L99.14 76.71zM147.64 104.71L171.89 118.71L171.89 146.71L147.64 160.71L123.39 146.71L123.39 118.71zM123.39 146.71L147.64 160.71L147.64 188.71L123.39 202.71L99.14 188.71L99.14 160.71zM147.64 272.71L171.89 286.71L171.89 314.71L147.64 328.71L123.39 314.71L123.39 286.71zM147.64 440.71L171.89 454.71L171.89 482.71L147.64 496.71L123.39 482.71L123.39 454.71zM196.14 440.71L220.39 454.71L220.39 482.71L196.14 496.71L171.89 482.71L171.89 454.71zM171.89 482.71L196.14 496.71L196.14 524.71L171.89 538.71L147.64 524.71L147.64 496.71zM244.63 104.71L268.88 118.71L268.88 146.71L244.63 160.71L220.39 146.71L220.39 118.71zM220.39 146.71L244.63 160.71L244.63 188.71L220.39 202.71L196.14 188.71L196.14 160.71zM244.63 188.71L268.88 202.71L268.88 230.71L244.63 244.71L220.39 230.71L220.39 202.71zM244.63 440.71L268.88 454.71L268.88 482.71L244.63 496.71L220.39 482.71L220.39 454.71zM244.63 524.71L268.88 538.71L268.88 566.71L244.63 580.71L220.39 566.71L220.39 538.71zM268.88 62.71L293.13 76.71L293.13 104.71L268.88 118.71L244.63 104.71L244.63 76.71zM293.13 104.71L317.38 118.71L317.38 146.71L293.13 160.71L268.88 146.71L268.88 118.71zM268.88 230.71L293.13 244.71L293.13 272.71L268.88 286.71L244.63 272.71L244.63 244.71zM268.88 314.71L293.13 328.71L293.13 356.71L268.88 370.71L244.63 356.71L244.63 328.71zM268.88 398.71L293.13 412.71L293.13 440.71L268.88 454.71L244.63 440.71L244.63 412.71zM317.38 -21.29L341.63 -7.29L341.63 20.71L317.38 34.71L293.13 20.71L293.13 -7.29zM341.63 20.71L365.88 34.71L365.88 62.71L341.63 76.71L317.38 62.71L317.38 34.71zM341.63 104.71L365.88 118.71L365.88 146.71L341.63 160.71L317.38 146.71L317.38 118.71zM317.38 230.71L341.63 244.71L341.63 272.71L317.38 286.71L293.13 272.71L293.13 244.71zM317.38 398.71L341.63 412.71L341.63 440.71L317.38 454.71L293.13 440.71L293.13 412.71zM341.63 524.71L365.88 538.71L365.88 566.71L341.63 580.71L317.38 566.71L317.38 538.71zM390.13 188.71L414.38 202.71L414.38 230.71L390.13 244.71L365.88 230.71L365.88 202.71zM414.38 -21.29L438.63 -7.29L438.63 20.71L414.38 34.71L390.13 20.71L390.13 -7.29zM438.63 20.71L462.88 34.71L462.88 62.71L438.63 76.71L414.38 62.71L414.38 34.71zM414.38 62.71L438.63 76.71L438.63 104.71L414.38 118.71L390.13 104.71L390.13 76.71zM438.63 104.71L462.88 118.71L462.88 146.71L438.63 160.71L414.38 146.71L414.38 118.71zM438.63 188.71L462.88 202.71L462.88 230.71L438.63 244.71L414.38 230.71L414.38 202.71zM414.38 314.71L438.63 328.71L438.63 356.71L414.38 370.71L390.13 356.71L390.13 328.71zM462.88 -21.29L487.13 -7.29L487.13 20.71L462.88 34.71L438.63 20.71L438.63 -7.29zM462.88 62.71L487.13 76.71L487.13 104.71L462.88 118.71L438.63 104.71L438.63 76.71zM487.13 272.71L511.38 286.71L511.38 314.71L487.13 328.71L462.88 314.71L462.88 286.71zM462.88 314.71L487.13 328.71L487.13 356.71L462.88 370.71L438.63 356.71L438.63 328.71zM487.13 356.71L511.38 370.71L511.38 398.71L487.13 412.71L462.88 398.71L462.88 370.71zM462.88 398.71L487.13 412.71L487.13 440.71L462.88 454.71L438.63 440.71L438.63 412.71zM487.13 440.71L511.38 454.71L511.38 482.71L487.13 496.71L462.88 482.71L462.88 454.71zM535.63 104.71L559.88 118.71L559.88 146.71L535.63 160.71L511.38 146.71L511.38 118.71zM535.63 188.71L559.88 202.71L559.88 230.71L535.63 244.71L511.38 230.71L511.38 202.71zM535.63 272.71L559.88 286.71L559.88 314.71L535.63 328.71L511.38 314.71L511.38 286.71zM535.63 356.71L559.88 370.71L559.88 398.71L535.63 412.71L511.38 398.71L511.38 370.71zM511.38 398.71L535.63 412.71L535.63 440.71L511.38 454.71L487.13 440.71L487.13 412.71zM535.63 440.71L559.88 454.71L559.88 482.71L535.63 496.71L511.38 482.71L511.38 454.71zM559.88 -21.29L584.13 -7.29L584.13 20.71L559.88 34.71L535.63 20.71L535.63 -7.29zM584.13 20.71L608.38 34.71L608.38 62.71L584.13 76.71L559.88 62.71L559.88 34.71zM559.88 230.71L584.13 244.71L584.13 272.71L559.88 286.71L535.63 272.71L535.63 244.71zM559.88 482.71L584.13 496.71L584.13 524.71L559.88 538.71L535.63 524.71L535.63 496.71zM608.38 230.71L632.63 244.71L632.63 272.71L608.38 286.71L584.13 272.71L584.13 244.71zM608.38 398.71L632.63 412.71L632.63 440.71L608.38 454.71L584.13 440.71L584.13 412.71zM608.38 482.71L632.63 496.71L632.63 524.71L608.38 538.71L584.13 524.71L584.13 496.71zM656.87 62.71L681.12 76.71L681.12 104.71L656.87 118.71L632.63 104.71L632.63 76.71zM681.12 272.71L705.37 286.71L705.37 314.71L681.12 328.71L656.87 314.71L656.87 286.71zM656.87 398.71L681.12 412.71L681.12 440.71L656.87 454.71L632.63 440.71L632.63 412.71zM681.12 524.71L705.37 538.71L705.37 566.71L681.12 580.71L656.87 566.71L656.87 538.71zM705.37 -21.29L729.62 -7.29L729.62 20.71L705.37 34.71L681.12 20.71L681.12 -7.29zM705.37 62.71L729.62 76.71L729.62 104.71L705.37 118.71L681.12 104.71L681.12 76.71zM705.37 146.71L729.62 160.71L729.62 188.71L705.37 202.71L681.12 188.71L681.12 160.71zM729.62 356.71L753.87 370.71L753.87 398.71L729.62 412.71L705.37 398.71L705.37 370.71zM705.37 398.71L729.62 412.71L729.62 440.71L705.37 454.71L681.12 440.71L681.12 412.71zM753.87 -21.29L778.12 -7.29L778.12 20.71L753.87 34.71L729.62 20.71L729.62 -7.29zM778.12 20.71L802.37 34.71L802.37 62.71L778.12 76.71L753.87 62.71L753.87 34.71zM753.87 62.71L778.12 76.71L778.12 104.71L753.87 118.71L729.62 104.71L729.62 76.71zM778.12 272.71L802.37 286.71L802.37 314.71L778.12 328.71L753.87 314.71L753.87 286.71zM753.87 398.71L778.12 412.71L778.12 440.71L753.87 454.71L729.62 440.71L729.62 412.71zM778.12 440.71L802.37 454.71L802.37 482.71L778.12 496.71L753.87 482.71L753.87 454.71zM802.37 146.71L826.62 160.71L826.62 188.71L802.37 202.71L778.12 188.71L778.12 160.71zM826.62 188.71L850.87 202.71L850.87 230.71L826.62 244.71L802.37 230.71L802.37 202.71zM802.37 230.71L826.62 244.71L826.62 272.71L802.37 286.71L778.12 272.71L778.12 244.71zM802.37 314.71L826.62 328.71L826.62 356.71L802.37 370.71L778.12 356.71L778.12 328.71zM826.62 524.71L850.87 538.71L850.87 566.71L826.62 580.71L802.37 566.71L802.37 538.71zM850.87 -21.29L875.12 -7.29L875.12 20.71L850.87 34.71L826.62 20.71L826.62 -7.29zM875.12 356.71L899.37 370.71L899.37 398.71L875.12 412.71L850.87 398.71L850.87 370.71zM850.87 398.71L875.12 412.71L875.12 440.71L850.87 454.71L826.62 440.71L826.62 412.71zM875.12 440.71L899.37 454.71L899.37 482.71L875.12 496.71L850.87 482.71L850.87 454.71zM850.87 482.71L875.12 496.71L875.12 524.71L850.87 538.71L826.62 524.71L826.62 496.71zM875.12 524.71L899.37 538.71L899.37 566.71L875.12 580.71L850.87 566.71L850.87 538.71zM899.37 -21.29L923.62 -7.29L923.62 20.71L899.37 34.71L875.12 20.71L875.12 -7.29zM923.62 20.71L947.87 34.71L947.87 62.71L923.62 76.71L899.37 62.71L899.37 34.71zM899.37 230.71L923.62 244.71L923.62 272.71L899.37 286.71L875.12 272.71L875.12 244.71zM923.62 272.71L947.87 286.71L947.87 314.71L923.62 328.71L899.37 314.71L899.37 286.71zM899.37 314.71L923.62 328.71L923.62 356.71L899.37 370.71L875.12 356.71L875.12 328.71zM923.62 356.71L947.87 370.71L947.87 398.71L923.62 412.71L899.37 398.71L899.37 370.71zM923.62 524.71L947.87 538.71L947.87 566.71L923.62 580.71L899.37 566.71L899.37 538.71zM947.87 62.71L972.12 76.71L972.12 104.71L947.87 118.71L923.62 104.71L923.62 76.71zM947.87 482.71L972.12 496.71L972.12 524.71L947.87 538.71L923.62 524.71L923.62 496.71zM996.37 -21.29L1020.62 -7.29L1020.62 20.71L996.37 34.71L972.12 20.71L972.12 -7.29zM996.37 314.71L1020.62 328.71L1020.62 356.71L996.37 370.71L972.12 356.71L972.12 328.71zM1044.86 -21.29L1069.11 -7.29L1069.11 20.71L1044.86 34.71L1020.62 20.71L1020.62 -7.29zM1044.86 146.71L1069.11 160.71L1069.11 188.71L1044.86 202.71L1020.62 188.71L1020.62 160.71zM1044.86 230.71L1069.11 244.71L1069.11 272.71L1044.86 286.71L1020.62 272.71L1020.62 244.71zM1044.86 314.71L1069.11 328.71L1069.11 356.71L1044.86 370.71L1020.62 356.71L1020.62 328.71zM1044.86 398.71L1069.11 412.71L1069.11 440.71L1044.86 454.71L1020.62 440.71L1020.62 412.71zM1069.11 524.71L1093.36 538.71L1093.36 566.71L1069.11 580.71L1044.86 566.71L1044.86 538.71zM1093.36 230.71L1117.61 244.71L1117.61 272.71L1093.36 286.71L1069.11 272.71L1069.11 244.71zM1117.61 272.71L1141.86 286.71L1141.86 314.71L1117.61 328.71L1093.36 314.71L1093.36 286.71zM1093.36 398.71L1117.61 412.71L1117.61 440.71L1093.36 454.71L1069.11 440.71L1069.11 412.71zM1093.36 482.71L1117.61 496.71L1117.61 524.71L1093.36 538.71L1069.11 524.71L1069.11 496.71zM1166.11 20.71L1190.36 34.71L1190.36 62.71L1166.11 76.71L1141.86 62.71L1141.86 34.71zM1166.11 524.71L1190.36 538.71L1190.36 566.71L1166.11 580.71L1141.86 566.71L1141.86 538.71zM1190.36 -21.29L1214.61 -7.29L1214.61 20.71L1190.36 34.71L1166.11 20.71L1166.11 -7.29zM1190.36 62.71L1214.61 76.71L1214.61 104.71L1190.36 118.71L1166.11 104.71L1166.11 76.71zM1190.36 482.71L1214.61 496.71L1214.61 524.71L1190.36 538.71L1166.11 524.71L1166.11 496.71zM1238.86 146.71L1263.11 160.71L1263.11 188.71L1238.86 202.71L1214.61 188.71L1214.61 160.71zM1263.11 188.71L1287.36 202.71L1287.36 230.71L1263.11 244.71L1238.86 230.71L1238.86 202.71zM1238.86 230.71L1263.11 244.71L1263.11 272.71L1238.86 286.71L1214.61 272.71L1214.61 244.71zM1238.86 314.71L1263.11 328.71L1263.11 356.71L1238.86 370.71L1214.61 356.71L1214.61 328.71zM1238.86 398.71L1263.11 412.71L1263.11 440.71L1238.86 454.71L1214.61 440.71L1214.61 412.71zM1263.11 440.71L1287.36 454.71L1287.36 482.71L1263.11 496.71L1238.86 482.71L1238.86 454.71zM1311.61 20.71L1335.86 34.71L1335.86 62.71L1311.61 76.71L1287.36 62.71L1287.36 34.71zM1287.36 62.71L1311.61 76.71L1311.61 104.71L1287.36 118.71L1263.11 104.71L1263.11 76.71zM1311.61 188.71L1335.86 202.71L1335.86 230.71L1311.61 244.71L1287.36 230.71L1287.36 202.71zM1311.61 272.71L1335.86 286.71L1335.86 314.71L1311.61 328.71L1287.36 314.71L1287.36 286.71zM1287.36 314.71L1311.61 328.71L1311.61 356.71L1287.36 370.71L1263.11 356.71L1263.11 328.71zM1311.61 356.71L1335.86 370.71L1335.86 398.71L1311.61 412.71L1287.36 398.71L1287.36 370.71zM1335.86 314.71L1360.11 328.71L1360.11 356.71L1335.86 370.71L1311.61 356.71L1311.61 328.71zM1335.86 398.71L1360.11 412.71L1360.11 440.71L1335.86 454.71L1311.61 440.71L1311.61 412.71zM1384.36 -21.29L1408.61 -7.29L1408.61 20.71L1384.36 34.71L1360.11 20.71L1360.11 -7.29zM1384.36 62.71L1408.61 76.71L1408.61 104.71L1384.36 118.71L1360.11 104.71L1360.11 76.71zM1384.36 230.71L1408.61 244.71L1408.61 272.71L1384.36 286.71L1360.11 272.71L1360.11 244.71zM1408.61 272.71L1432.86 286.71L1432.86 314.71L1408.61 328.71L1384.36 314.71L1384.36 286.71zM1384.36 314.71L1408.61 328.71L1408.61 356.71L1384.36 370.71L1360.11 356.71L1360.11 328.71zM1408.61 524.71L1432.86 538.71L1432.86 566.71L1408.61 580.71L1384.36 566.71L1384.36 538.71zM1432.86 -21.29L1457.1 -7.29L1457.1 20.71L1432.86 34.71L1408.61 20.71L1408.61 -7.29zM1457.1 20.71L1481.35 34.71L1481.35 62.71L1457.1 76.71L1432.86 62.71L1432.86 34.71z" stroke="rgba(6, 80, 156, 0.93)" stroke-width="2"></path></g><defs><mask id="SvgjsMask1032"><rect width="1440" height="560" fill="#ffffff"></rect></mask></defs></svg>