<svg xmlns="http://www.w3.org/2000/svg" version="1.1" xmlns:xlink="http://www.w3.org/1999/xlink" xmlns:svgjs="http://svgjs.dev/svgjs" width="1440" height="560" preserveAspectRatio="none" viewBox="0 0 1440 560"><g mask="url(&quot;#SvgjsMask1014&quot;)" fill="none"><rect width="1440" height="560" x="0" y="0" fill="rgba(46, 59, 78, 1)"></rect><path d="M0,294.673C54.13,286.111,100.03,256.984,146.886,228.56C195.007,199.369,250.062,175.907,277.13,126.561C304.956,75.833,293.082,15.308,295.572,-42.497C298.674,-114.512,344.746,-203.622,293.539,-254.353C241.009,-306.394,147.916,-241.464,76.271,-259.756C8.755,-276.994,-34.981,-360.346,-104.527,-355.987C-174.802,-351.582,-230.396,-292.739,-274.406,-237.775C-317.354,-184.138,-340.976,-118.43,-349.351,-50.229C-357.605,16.99,-352.506,86.607,-321.641,146.889C-291.487,205.783,-240.249,252.659,-180.127,280.283C-124.263,305.951,-60.724,304.278,0,294.673" fill="#2a3647"></path><path d="M1440 1147.158C1544.065 1118.1570000000002 1615.717 1032.908 1703.087 969.371 1784.559 910.123 1877.479 868.524 1935.949 786.492 2002.745 692.778 2080.656 583.989 2058.23 471.11199999999997 2035.816 358.296 1895.712 317.137 1824.719 226.639 1748.475 129.44799999999998 1735.472-18.347999999999956 1627.37-78.12300000000005 1514.513-140.52700000000004 1372.611-127.23000000000002 1248.573-91.93899999999996 1123.931-56.476 1011.8109999999999 17.714000000000055 931.918 119.745 854.207 218.99 798.932 343.654 809.114 469.29200000000003 818.634 586.762 943.293 657.607 984.4590000000001 768.039 1030.546 891.671 960.701 1063.595 1062.117 1147.9969999999998 1160.936 1230.239 1316.154 1181.671 1440 1147.158" fill="#324055"></path></g><defs><mask id="SvgjsMask1014"><rect width="1440" height="560" fill="#ffffff"></rect></mask></defs></svg>